<svg width="512" height="512" xmlns="http://www.w3.org/2000/svg" xml:space="preserve" version="1.1">

 <g>
  <title>Layer 1</title>
  <g id="svg_1">
   <path id="svg_2" data-original="#000000" fill="#000000" d="m213.33203,512c-44.09375,0 -80,-35.88281 -80,-80c0,-8.83203 7.16797,-16 16,-16s16,7.16797 16,16c0,26.47656 21.54688,48 48,48s48,-21.52344 48,-48c0,-8.83203 7.16797,-16 16,-16s16,7.16797 16,16c0,44.11719 -35.90234,80 -80,80zm0,0" xmlns="http://www.w3.org/2000/svg"/>
   <path id="svg_3" data-original="#000000" fill="#000000" d="m389.33203,448l-352,0c-20.58594,0 -37.33203,-16.74609 -37.33203,-37.33203c0,-10.92578 4.75781,-21.26953 13.05469,-28.375c0.53515,-0.46875 1.10937,-0.89453 1.70703,-1.28125c31.3164,-27.32813 49.23828,-66.64453 49.23828,-108.16016l0,-59.51953c0,-82.34375 67.00781,-149.33203 149.33203,-149.33203c3.41406,0 7.10547,0.0625 10.51953,0.64062c8.72266,1.44922 14.61328,9.70704 13.16016,18.41016c-1.44922,8.70313 -9.85547,14.59375 -18.41016,13.14063c-1.70703,-0.27735 -3.58203,-0.19141 -5.26953,-0.19141c-64.67969,0 -117.33203,52.62891 -117.33203,117.33203l0,59.51953c0,51.54297 -22.59375,100.3125 -61.92969,133.78125c-0.32031,0.25781 -0.59765,0.49219 -0.9414,0.72656c-0.57422,0.72657 -1.12891,1.83594 -1.12891,3.3086c0,2.89844 2.43359,5.33203 5.33203,5.33203l352,0c2.90235,0 5.33594,-2.43359 5.33594,-5.33203c0,-1.4961 -0.55469,-2.58203 -1.15235,-3.3086c-0.32031,-0.23437 -0.59765,-0.46875 -0.91796,-0.72656c-39.35938,-33.49219 -61.92969,-82.23828 -61.92969,-133.78125l0,-23.25c0,-8.83203 7.16797,-16 16,-16s16,7.16797 16,16l0,23.25c0,41.53906 17.9414,80.875 49.30078,108.22656c0.57422,0.38282 1.12891,0.78907 1.64062,1.23829c8.30079,7.08203 13.0586,17.42578 13.0586,28.35156c0,20.58594 -16.7461,37.33203 -37.33594,37.33203zm0,0" xmlns="http://www.w3.org/2000/svg"/>
   <path id="svg_4" data-original="#000000" fill="#000000" d="m362.66797,213.33203c-58.81641,0 -106.66797,-47.84765 -106.66797,-106.66406c0,-58.81641 47.85156,-106.66797 106.66797,-106.66797c58.81641,0 106.66406,47.85156 106.66406,106.66797c0,58.81641 -47.84765,106.66406 -106.66406,106.66406zm0,-181.33203c-41.17578,0 -74.66797,33.49219 -74.66797,74.66797c0,41.17187 33.49219,74.66406 74.66797,74.66406c41.17187,0 74.66406,-33.49219 74.66406,-74.66406c0,-41.17578 -33.49219,-74.66797 -74.66406,-74.66797zm0,0" xmlns="http://www.w3.org/2000/svg"/>
  </g>
  <ellipse ry="106.5" rx="107.5" id="svg_5" cy="106.3" cx="362.5" stroke="#000" fill="#ff2d2d"/>
 </g>
</svg>